<?xml version="1.0" encoding="UTF-8"?>
<!DOCTYPE svg PUBLIC "-//W3C//DTD SVG 1.1//EN" "http://www.w3.org/Graphics/SVG/1.1/DTD/svg11.dtd">
<!-- Creator: CorelDRAW X8 -->
<svg xmlns="http://www.w3.org/2000/svg" xml:space="preserve" width="43.9576mm" height="43.9577mm" version="1.1" style="shape-rendering:geometricPrecision; text-rendering:geometricPrecision; image-rendering:optimizeQuality; fill-rule:evenodd; clip-rule:evenodd"
viewBox="0 0 8492 8492"
 xmlns:xlink="http://www.w3.org/1999/xlink">
 <defs>
  <style type="text/css">
   <![CDATA[
    .str0 {stroke:#A582AF;stroke-width:336.727}
    .fil2 {fill:none;fill-rule:nonzero}
    .fil0 {fill:white}
    .fil1 {fill:#CA567E;fill-rule:nonzero}
   ]]>
  </style>
 </defs>
 <g id="Capa_x0020_1">
  <metadata id="CorelCorpID_0Corel-Layer"/>
  <path class="fil0" d="M4246 0c2345,0 4246,1901 4246,4246 0,2345 -1901,4246 -4246,4246 -2345,0 -4246,-1901 -4246,-4246 0,-2345 1901,-4246 4246,-4246z"/>
  <g id="_2830691410832">
   <path class="fil1" d="M5090 4648c350,0 631,-283 631,-633 0,-350 -281,-633 -631,-633 -350,0 -633,283 -633,633 0,350 283,633 633,633zm-1688 0c350,0 631,-283 631,-633 0,-350 -281,-633 -631,-633 -350,0 -633,283 -633,633 0,350 283,633 633,633zm0 422c-492,0 -1477,247 -1477,739l0 527 2954 0 0 -527c0,-492 -985,-739 -1477,-739zm1688 0c-61,0 -131,4 -205,11 245,177 416,415 416,728l0 527 1266 0 0 -527c0,-492 -985,-739 -1477,-739z"/>
   <path class="fil2 str0" d="M4246 635c1994,0 3611,1617 3611,3611 0,1994 -1617,3611 -3611,3611 -1994,0 -3611,-1617 -3611,-3611 0,-1994 1617,-3611 3611,-3611z"/>
   <polygon class="fil1" points="4987,1761 4431,1761 4431,1205 4061,1205 4061,1761 3505,1761 3505,2131 4061,2131 4061,2687 4431,2687 4431,2131 4987,2131 "/>
  </g>
 </g>
</svg>
