<?xml version="1.0" encoding="UTF-8"?>
<!DOCTYPE svg PUBLIC "-//W3C//DTD SVG 1.1//EN" "http://www.w3.org/Graphics/SVG/1.1/DTD/svg11.dtd">
<!-- Creator: CorelDRAW X8 -->
<svg xmlns="http://www.w3.org/2000/svg" xml:space="preserve" width="43.9576mm" height="43.9577mm" version="1.1" style="shape-rendering:geometricPrecision; text-rendering:geometricPrecision; image-rendering:optimizeQuality; fill-rule:evenodd; clip-rule:evenodd"
viewBox="0 0 944 944"
 xmlns:xlink="http://www.w3.org/1999/xlink">
 <defs>
  <style type="text/css">
   <![CDATA[
    .str0 {stroke:#A582AF;stroke-width:37.3037}
    .fil1 {fill:none}
    .fil2 {fill:#CC5880}
    .fil0 {fill:white}
   ]]>
  </style>
 </defs>
 <g id="Capa_x0020_1">
  <metadata id="CorelCorpID_0Corel-Layer"/>
  <path class="fil0" d="M472 0c261,0 472,211 472,472 0,261 -211,472 -472,472 -261,0 -472,-211 -472,-472 0,-261 211,-472 472,-472z"/>
  <circle class="fil1 str0" cx="472" cy="472" r="400"/>
  <path class="fil2" d="M248 559l100 0 0 48 116 1 0 98 216 0c0,-42 0,-84 0,-126 0,-65 10,-149 -82,-173 -35,-10 -80,3 -97,23 -7,-4 -6,-8 -11,-14 -35,-42 -92,-37 -121,-6 -8,-8 -13,-17 -26,-25 -13,-8 -26,-9 -44,-7 -30,8 -52,28 -52,64 -1,23 -3,99 1,117z"/>
  <path class="fil2" d="M493 320c24,109 168,76 158,-20 -2,-15 -8,-23 -11,-34 -5,-3 -38,-53 -95,-32 -39,14 -54,46 -52,86z"/>
  <path class="fil2" d="M369 322c4,33 32,61 72,51 17,-3 29,-15 36,-26 11,-18 9,-32 5,-53 -11,-14 -9,-19 -26,-28 -14,-7 -29,-10 -45,-5 -25,6 -43,29 -42,61z"/>
  <path class="fil2" d="M292 366c25,0 36,6 53,-11 14,-14 16,-31 10,-54 -10,-13 -12,-23 -34,-27 -33,-7 -65,24 -55,60 6,24 16,20 26,32z"/>
 </g>
</svg>
