<?xml version="1.0" encoding="UTF-8"?>
<!DOCTYPE svg PUBLIC "-//W3C//DTD SVG 1.1//EN" "http://www.w3.org/Graphics/SVG/1.1/DTD/svg11.dtd">
<!-- Creator: CorelDRAW X8 -->
<svg xmlns="http://www.w3.org/2000/svg" xml:space="preserve" width="43.9576mm" height="43.9577mm" version="1.1" style="shape-rendering:geometricPrecision; text-rendering:geometricPrecision; image-rendering:optimizeQuality; fill-rule:evenodd; clip-rule:evenodd"
viewBox="0 0 929 929"
 xmlns:xlink="http://www.w3.org/1999/xlink">
 <defs>
  <style type="text/css">
   <![CDATA[
    .str0 {stroke:#A582AF;stroke-width:36.7126}
    .fil2 {fill:none}
    .fil0 {fill:white}
    .fil1 {fill:#CA567E;fill-rule:nonzero}
   ]]>
  </style>
 </defs>
 <g id="Capa_x0020_1">
  <metadata id="CorelCorpID_0Corel-Layer"/>
  <path class="fil0" d="M464 0c257,0 465,208 465,464 0,257 -208,465 -465,465 -256,0 -464,-208 -464,-465 0,-256 208,-464 464,-464z"/>
  <g id="_2830686351872">
   <path class="fil1" d="M463 129c-129,0 -234,105 -234,234l42 0c0,-105 86,-191 192,-191 105,0 191,86 191,191l43 0c0,-129 -105,-234 -234,-234z"/>
   <path class="fil1" d="M372 775l37 0 0 -37 -37 0 0 37zm92 -204c31,0 56,-25 56,-56l0 -111c0,-31 -25,-56 -56,-56 -30,0 -55,25 -55,56l0 111c0,31 25,56 55,56zm-18 204l37 0 0 -37 -37 0 0 37zm74 0l37 0 0 -37 -37 0 0 37zm75 -260l-32 0c0,56 -47,95 -99,95 -51,0 -98,-39 -98,-95l-32 0c0,64 51,116 112,125l0 61 37 0 0 -61c61,-9 112,-61 112,-125z"/>
   <path class="fil1" d="M464 246c-75,0 -137,62 -137,137l40 0c0,-54 43,-97 97,-97 54,0 98,43 98,97l39 0c0,-75 -61,-137 -137,-137z"/>
   <circle class="fil2 str0" cx="464" cy="464" r="394"/>
  </g>
 </g>
</svg>
