<?xml version="1.0" encoding="UTF-8"?>
<!DOCTYPE svg PUBLIC "-//W3C//DTD SVG 1.1//EN" "http://www.w3.org/Graphics/SVG/1.1/DTD/svg11.dtd">
<!-- Creator: CorelDRAW X8 -->
<svg xmlns="http://www.w3.org/2000/svg" xml:space="preserve" width="43.9576mm" height="43.9576mm" version="1.1" style="shape-rendering:geometricPrecision; text-rendering:geometricPrecision; image-rendering:optimizeQuality; fill-rule:evenodd; clip-rule:evenodd"
viewBox="0 0 1283 1283"
 xmlns:xlink="http://www.w3.org/1999/xlink">
 <defs>
  <style type="text/css">
   <![CDATA[
    .str0 {stroke:#A582AF;stroke-width:50.8785}
    .fil1 {fill:none;fill-rule:nonzero}
    .fil0 {fill:white}
    .fil2 {fill:#CA567E;fill-rule:nonzero}
   ]]>
  </style>
 </defs>
 <g id="Capa_x0020_1">
  <metadata id="CorelCorpID_0Corel-Layer"/>
  <path class="fil0" d="M642 0c354,0 641,287 641,642 0,354 -287,641 -641,641 -355,0 -642,-287 -642,-641 0,-355 287,-642 642,-642z"/>
  <g id="_2830689496000">
   <path class="fil1 str0" d="M642 96c301,0 545,244 545,546 0,301 -244,545 -545,545 -302,0 -546,-244 -546,-545 0,-302 244,-546 546,-546z"/>
   <path class="fil2" d="M640 740c66,0 119,-53 119,-119 0,-65 -53,-118 -119,-118 -65,0 -118,53 -118,118 0,66 53,119 118,119zm0 59c-79,0 -236,40 -236,118l0 59 473 0 0 -59c0,-78 -158,-118 -237,-118z"/>
   <path class="fil2" d="M639 241c20,0 38,8 52,21l-37 37 88 0 0 -88 -31 30c-18,-18 -44,-30 -72,-30 -52,0 -94,39 -101,88l29 0c7,-33 37,-58 72,-58zm83 134c9,-14 16,-29 18,-46l-29 0c-7,33 -37,58 -72,58 -20,0 -39,-8 -52,-21l37 -37 -88 0 0 87 30 -30c19,19 45,30 73,30 23,0 44,-7 61,-19l71 71 22 -22 -71 -71z"/>
  </g>
 </g>
</svg>
