<?xml version="1.0" encoding="UTF-8"?>
<!DOCTYPE svg PUBLIC "-//W3C//DTD SVG 1.1//EN" "http://www.w3.org/Graphics/SVG/1.1/DTD/svg11.dtd">
<!-- Creator: CorelDRAW X8 -->
<svg xmlns="http://www.w3.org/2000/svg" xml:space="preserve" width="43.9577mm" height="43.9576mm" version="1.1" style="shape-rendering:geometricPrecision; text-rendering:geometricPrecision; image-rendering:optimizeQuality; fill-rule:evenodd; clip-rule:evenodd"
viewBox="0 0 8492 8492"
 xmlns:xlink="http://www.w3.org/1999/xlink">
 <defs>
  <style type="text/css">
   <![CDATA[
    .str0 {stroke:#A582AF;stroke-width:336.724}
    .fil2 {fill:none;fill-rule:nonzero}
    .fil0 {fill:white}
    .fil1 {fill:#CA567E;fill-rule:nonzero}
   ]]>
  </style>
 </defs>
 <g id="Capa_x0020_1">
  <metadata id="CorelCorpID_0Corel-Layer"/>
  <path class="fil0" d="M4246 0c2345,0 4246,1901 4246,4246 0,2345 -1901,4246 -4246,4246 -2345,0 -4246,-1901 -4246,-4246 0,-2345 1901,-4246 4246,-4246z"/>
  <g id="_2830689531008">
   <path class="fil1" d="M4207 1829c-103,0 -187,85 -187,188 0,103 84,187 187,187 103,0 187,-84 187,-187 0,-103 -84,-188 -187,-188zm562 188c0,-311 -252,-563 -562,-563 -310,0 -562,252 -562,563 0,208 113,389 281,486l94 -163c-112,-66 -188,-185 -188,-323 0,-207 168,-375 375,-375 207,0 375,168 375,375 0,138 -76,257 -188,323l94 163c168,-97 281,-278 281,-486zm-562 -938c-517,0 -937,420 -937,938 0,346 188,648 467,810l94 -162c-223,-130 -374,-371 -374,-648 0,-415 336,-750 750,-750 414,0 750,335 750,750 0,277 -151,518 -375,648l94 162c280,-162 468,-464 468,-810 0,-518 -420,-938 -937,-938z"/>
   <path class="fil1" d="M5090 4648c350,0 631,-283 631,-633 0,-350 -281,-633 -631,-633 -350,0 -633,283 -633,633 0,350 283,633 633,633zm-1688 0c350,0 631,-283 631,-633 0,-350 -281,-633 -631,-633 -350,0 -633,283 -633,633 0,350 283,633 633,633zm0 422c-492,0 -1477,247 -1477,739l0 527 2954 0 0 -527c0,-492 -985,-739 -1477,-739zm1688 0c-61,0 -131,4 -205,11 245,177 416,415 416,728l0 527 1266 0 0 -527c0,-492 -985,-739 -1477,-739z"/>
   <path class="fil2 str0" d="M4246 635c1994,0 3611,1617 3611,3611 0,1994 -1617,3611 -3611,3611 -1994,0 -3611,-1617 -3611,-3611 0,-1994 1617,-3611 3611,-3611z"/>
  </g>
 </g>
</svg>
